<svg width="64" height="64" viewBox="0 0 64 64" xmlns="http://www.w3.org/2000/svg">
  <defs>
    <linearGradient id="logoGrad" x1="0%" y1="0%" x2="100%" y2="100%">
      <stop offset="0%" style="stop-color:#0066ff;stop-opacity:1" />
      <stop offset="50%" style="stop-color:#00a8ff;stop-opacity:1" />
      <stop offset="100%" style="stop-color:#00ff99;stop-opacity:1" />
    </linearGradient>
  </defs>
  
  <!-- Cloud -->
  <g transform="translate(32, 18)">
    <path d="M -14 0 Q -14 -8, -6 -8 Q -6 -12, 0 -12 Q 6 -12, 6 -8 Q 14 -8, 14 0 Q 14 5, 9 5 L -9 5 Q -14 5, -14 0 Z" 
          fill="url(#logoGrad)"/>
  </g>
  
  <!-- Letter A -->
  <g transform="translate(32, 40)">
    <path d="M -10 15 L -3 -8 L 3 -8 L 10 15 L 6 15 L 4 8 L -4 8 L -6 15 Z M -2 4 L 2 4 L 0 -3 Z" 
          fill="url(#logoGrad)"/>
  </g>
  
  <!-- Connection Dots -->
  <circle cx="20" cy="52" r="2" fill="#0066ff"/>
  <circle cx="32" cy="52" r="2.5" fill="#00a8ff"/>
  <circle cx="44" cy="52" r="2" fill="#00ff99"/>
  <line x1="20" y1="52" x2="32" y2="52" stroke="url(#logoGrad)" stroke-width="1"/>
  <line x1="32" y1="52" x2="44" y2="52" stroke="url(#logoGrad)" stroke-width="1"/>
</svg>
