<svg width="64" height="64" viewBox="0 0 64 64" xmlns="http://www.w3.org/2000/svg">
  <defs>
    <linearGradient id="logoGrad" x1="0%" y1="0%" x2="100%" y2="100%">
      <stop offset="0%" style="stop-color:#0066ff;stop-opacity:1" />
      <stop offset="100%" style="stop-color:#00ff99;stop-opacity:1" />
    </linearGradient>
  </defs>
  
  <!-- Simplified Cloud + AI Symbol -->
  <g transform="translate(32, 20)">
    <!-- Cloud -->
    <path d="M -12 0 Q -12 -8, -5 -8 Q -5 -12, 0 -12 Q 5 -12, 5 -8 Q 12 -8, 12 0 Q 12 5, 8 5 L -8 5 Q -12 5, -12 0 Z" 
          fill="url(#logoGrad)"/>
  </g>
  
  <!-- AI Neural Network -->
  <g transform="translate(32, 44)">
    <circle cx="0" cy="0" r="4" fill="url(#logoGrad)"/>
    <line x1="-10" y1="-5" x2="-4" y2="-2" stroke="url(#logoGrad)" stroke-width="1.5"/>
    <line x1="10" y1="-5" x2="4" y2="-2" stroke="url(#logoGrad)" stroke-width="1.5"/>
    <circle cx="-10" cy="-5" r="3" fill="url(#logoGrad)"/>
    <circle cx="10" cy="-5" r="3" fill="url(#logoGrad)"/>
  </g>
  
  <!-- Letter A -->
  <path d="M 24 50 L 32 28 L 40 50 M 27 42 L 37 42" 
        stroke="url(#logoGrad)" 
        stroke-width="2.5" 
        fill="none" 
        stroke-linecap="round"/>
</svg>
